# This file uses centimeters as units for non-parametric coordinates.

mtllib Capsula.mtl
g default
v 0.637059 -0.108225 -0.422129
v 0.306501 -0.108225 -0.708559
v -0.126438 -0.108225 -0.770807
v -0.524303 -0.108225 -0.589108
v -0.760775 -0.108225 -0.221151
v -0.760775 -0.108225 0.216240
v -0.524303 -0.108225 0.584197
v -0.126438 -0.108225 0.765896
v 0.306501 -0.108225 0.703649
v 0.637059 -0.108225 0.417218
v 0.760287 -0.108225 -0.002455
v 0.798343 0.289883 -0.525780
v 0.386144 0.289883 -0.882953
v -0.153722 0.289883 -0.960574
v -0.649852 0.289883 -0.733999
v -0.944727 0.289883 -0.275165
v -0.944727 0.289883 0.270253
v -0.649852 0.289883 0.729088
v -0.153722 0.289883 0.955663
v 0.386144 0.289883 0.878042
v 0.798343 0.289883 0.520869
v 0.952005 0.289883 -0.002456
v 0.798343 2.265246 -0.525780
v 0.386144 2.265246 -0.882953
v -0.153722 2.265246 -0.960574
v -0.649852 2.265246 -0.733999
v -0.944727 2.265246 -0.275165
v -0.944727 2.265246 0.270253
v -0.649852 2.265246 0.729088
v -0.153722 2.265246 0.955663
v 0.386144 2.265246 0.878042
v 0.798343 2.265246 0.520869
v 0.952005 2.265246 -0.002456
v 0.637059 2.663354 -0.422129
v 0.306501 2.663354 -0.708559
v -0.126438 2.663354 -0.770807
v -0.524303 2.663354 -0.589108
v -0.760775 2.663354 -0.221152
v -0.760775 2.663354 0.216240
v -0.524303 2.663354 0.584197
v -0.126438 2.663354 0.765896
v 0.306501 2.663354 0.703649
v 0.637059 2.663354 0.417218
v 0.760287 2.663354 -0.002456
v 0.346436 2.938853 -0.235357
v 0.162990 2.938853 -0.394313
v -0.077273 2.938853 -0.428859
v -0.298071 2.938853 -0.328023
v -0.429303 2.938853 -0.123822
v -0.429303 2.938853 0.118911
v -0.298072 2.938853 0.323112
v -0.077273 2.938853 0.423947
v 0.162990 2.938853 0.389403
v 0.346436 2.938853 0.230446
v 0.414822 2.938853 -0.002456
v -0.015966 3.037178 -0.002456
v 0.944254 -0.020455 -0.624421
v 0.454359 -0.020455 -1.048917
v 0.454359 -0.560167 -1.048917
v -0.187266 -0.020455 -1.141170
v -0.187266 -0.560167 -1.141170
v -0.776911 -0.020455 -0.871888
v -0.776911 -0.560167 -0.871888
v -1.127367 -0.020455 -0.326568
v -1.127367 -0.560167 -0.326568
v -1.127367 -0.020455 0.321656
v -1.127367 -0.560167 0.321656
v -0.776912 -0.020455 0.866977
v -0.776912 -0.560167 0.866977
v -0.187267 -0.020455 1.136259
v -0.187267 -0.560167 1.136259
v 0.454359 -0.020455 1.044007
v 0.454359 -0.560167 1.044007
v 0.944254 -0.020455 0.619510
v 0.944254 -0.560167 0.619510
v 1.126879 -0.020455 -0.017418
v 1.126879 -0.560171 -0.017418
v 0.944254 -0.560171 -0.624421
vt 0.333597 0.772356
vt 0.293021 0.825780
vt 0.233365 0.849871
vt 0.171400 0.838903
vt 0.125784 0.796282
vt 0.110286 0.737094
vt 0.128851 0.678341
vt 0.176400 0.637986
vt 0.239257 0.628371
vt 0.300027 0.652406
vt 0.339424 0.704915
vt 0.332833 0.444198
vt 0.258962 0.444857
vt 0.184673 0.443593
vt 0.108467 0.440826
vt 0.885844 0.438851
vt 0.809308 0.439662
vt 0.735904 0.440861
vt 0.663021 0.441608
vt 0.589089 0.441828
vt 0.486564 0.440490
vt 0.407674 0.442300
vt 0.322274 0.191194
vt 0.261128 0.194618
vt 0.200021 0.189805
vt 0.134772 0.176942
vt 0.869537 0.166528
vt 0.795460 0.179370
vt 0.729234 0.186956
vt 0.665306 0.187426
vt 0.598943 0.180761
vt 0.462768 0.162950
vt 0.387528 0.179988
vt 0.311701 0.143858
vt 0.261618 0.148794
vt 0.211720 0.142750
vt 0.160772 0.124195
vt 0.834997 0.095289
vt 0.777051 0.125409
vt 0.723204 0.138020
vt 0.670483 0.138452
vt 0.616626 0.126718
vt 0.418409 0.090158
vt 0.363403 0.126545
vt 0.294663 0.091931
vt 0.262080 0.097309
vt 0.229690 0.091387
vt 0.199985 0.073315
vt 0.772940 0.042000
vt 0.745853 0.070395
vt 0.713298 0.083607
vt 0.679305 0.083973
vt 0.646616 0.071495
vt 0.348593 0.041375
vt 0.324962 0.074253
vt 0.261975 0.028246
vt 0.309179 0.846481
vt 0.356491 0.781755
vt 0.337737 0.881036
vt 0.238153 0.876526
vt 0.248240 0.920284
vt 0.162806 0.865055
vt 0.150644 0.908477
vt 0.104364 0.816656
vt 0.072755 0.848213
vt 0.082148 0.744098
vt 0.038066 0.754767
vt 0.100987 0.670842
vt 0.057669 0.657434
vt 0.155927 0.617980
vt 0.124939 0.584629
vt 0.231465 0.601448
vt 0.219553 0.556574
vt 0.307282 0.626800
vt 0.313400 0.577184
vt 0.368918 0.690150
vt 0.399213 0.675667
vt 0.395686 0.805267
vt 0.307282 0.626800
vt 0.313400 0.577184
vt 0.524837 0.510628
vt 0.300027 0.652406
vt 0.619212 0.043943
vt 0.558772 0.097513
vt 0.524639 0.168793
vt 0.404945 0.506817
vt 0.333519 0.508843
vt 0.593551 0.506056
vt 0.664612 0.505235
vt 0.736455 0.504200
vt 0.806506 0.503153
vt 0.041471 0.509351
vt 0.111104 0.506913
vt 0.184505 0.509147
vt 0.259373 0.510199
vt 0.177402 0.040480
vt 0.695331 0.016711
vt 0.107979 0.086176
vt 0.059420 0.157713
vt 0.027519 0.437491
vt 0.873638 0.506473
vt 0.471872 0.510171
vt 0.511601 0.442135
vn 0.640065 0.649384 -0.410630
vn 0.311969 0.658372 -0.684997
vn 0.414428 -0.068896 -0.907471
vn 0.839255 -0.068896 -0.539356
vn -0.107013 0.665778 -0.738436
vn -0.141976 -0.068896 -0.987470
vn -0.485171 0.672436 -0.558963
vn -0.653304 -0.068896 -0.753954
vn -0.706829 0.676326 -0.207304
vn -0.957213 -0.068896 -0.281063
vn -0.706830 0.676326 0.207304
vn -0.957213 -0.068896 0.281063
vn -0.485171 0.672436 0.558962
vn -0.653305 -0.068896 0.753954
vn -0.107013 0.665778 0.738436
vn -0.141977 -0.068896 0.987469
vn 0.311969 0.658372 0.684997
vn 0.414428 -0.068896 0.907471
vn 0.634256 0.655801 0.409443
vn 0.839255 -0.068896 0.539356
vn 0.759444 0.650570 -0.001729
vn 0.997624 -0.068896 -0.000000
vn 0.414428 0.068896 -0.907471
vn 0.839255 0.068896 -0.539356
vn -0.141976 0.068896 -0.987469
vn -0.653304 0.068896 -0.753954
vn -0.957213 0.068896 -0.281063
vn -0.957213 0.068896 0.281063
vn -0.653305 0.068896 0.753954
vn -0.141977 0.068896 0.987469
vn 0.414428 0.068896 0.907471
vn 0.839255 0.068896 0.539356
vn 0.997624 0.068896 0.000000
vn 0.341146 0.570614 -0.747006
vn 0.690853 0.570614 -0.443984
vn -0.116871 0.570614 -0.812860
vn -0.537783 0.570614 -0.620635
vn -0.787953 0.570614 -0.231364
vn -0.787953 0.570614 0.231364
vn -0.537784 0.570614 0.620635
vn -0.116872 0.570614 0.812859
vn 0.341147 0.570614 0.747006
vn 0.690853 0.570614 0.443984
vn 0.821218 0.570614 0.000000
vn 0.228635 0.834916 -0.500641
vn 0.463007 0.834916 -0.297557
vn -0.078327 0.834916 -0.544776
vn -0.360421 0.834916 -0.415948
vn -0.528084 0.834916 -0.155059
vn -0.528084 0.834916 0.155059
vn -0.360421 0.834916 0.415948
vn -0.078327 0.834916 0.544776
vn 0.228635 0.834916 0.500641
vn 0.463008 0.834916 0.297557
vn 0.550378 0.834916 0.000000
vn -0.000000 1.000000 -0.000000
vn -0.124752 0.474979 -0.871109
vn 0.366896 0.470870 -0.802290
vn 0.415416 0.000000 -0.909631
vn -0.142315 0.000000 -0.989821
vn -0.574670 0.478711 -0.663769
vn -0.654861 0.000000 -0.755750
vn -0.841217 0.480909 -0.247146
vn -0.959493 0.000000 -0.281732
vn -0.841217 0.480909 0.247145
vn -0.959493 0.000000 0.281732
vn -0.574671 0.478711 0.663769
vn -0.654861 0.000000 0.755749
vn -0.124752 0.474979 0.871109
vn -0.142315 0.000000 0.989821
vn 0.366895 0.470870 0.802290
vn 0.415415 0.000000 0.909632
vn 0.748559 0.464142 0.473530
vn 0.844717 0.000000 0.535213
vn 0.884587 0.466375 0.000843
vn 1.000000 0.000000 -0.000001
vn 0.738749 0.471317 -0.481779
vn 0.837685 0.000000 -0.546154
s 1
g Capsula
usemtl initialShadingGroup
f 1/87/1 2/95/2 13/13/3 12/12/4
f 2/95/2 3/94/5 14/14/6 13/13/3
f 3/94/5 4/93/7 15/15/8 14/14/6
f 4/93/7 5/92/9 16/100/10 15/15/8
f 5/101/9 6/91/11 17/17/12 16/16/10
f 6/91/11 7/90/13 18/18/14 17/17/12
f 7/90/13 8/89/15 19/19/16 18/18/14
f 8/89/15 9/88/17 20/20/18 19/19/16
f 9/88/17 10/81/19 21/103/20 20/20/18
f 10/102/19 11/86/21 22/22/22 21/21/20
f 11/86/21 1/87/1 12/12/4 22/22/22
f 12/12/4 13/13/3 24/24/23 23/23/24
f 13/13/3 14/14/6 25/25/25 24/24/23
f 14/14/6 15/15/8 26/26/26 25/25/25
f 15/15/8 16/100/10 27/99/27 26/26/26
f 16/16/10 17/17/12 28/28/28 27/27/27
f 17/17/12 18/18/14 29/29/29 28/28/28
f 18/18/14 19/19/16 30/30/30 29/29/29
f 19/19/16 20/20/18 31/31/31 30/30/30
f 20/20/18 21/103/20 32/85/32 31/31/31
f 21/21/20 22/22/22 33/33/33 32/32/32
f 22/22/22 12/12/4 23/23/24 33/33/33
f 23/23/24 24/24/23 35/35/34 34/34/35
f 24/24/23 25/25/25 36/36/36 35/35/34
f 25/25/25 26/26/26 37/37/37 36/36/36
f 26/26/26 27/99/27 38/98/38 37/37/37
f 27/27/27 28/28/28 39/39/39 38/38/38
f 28/28/28 29/29/29 40/40/40 39/39/39
f 29/29/29 30/30/30 41/41/41 40/40/40
f 30/30/30 31/31/31 42/42/42 41/41/41
f 31/31/31 32/85/32 43/84/43 42/42/42
f 32/32/32 33/33/33 44/44/44 43/43/43
f 33/33/33 23/23/24 34/34/35 44/44/44
f 34/34/35 35/35/34 46/46/45 45/45/46
f 35/35/34 36/36/36 47/47/47 46/46/45
f 36/36/36 37/37/37 48/48/48 47/47/47
f 37/37/37 38/98/38 49/96/49 48/48/48
f 38/38/38 39/39/39 50/50/50 49/49/49
f 39/39/39 40/40/40 51/51/51 50/50/50
f 40/40/40 41/41/41 52/52/52 51/51/51
f 41/41/41 42/42/42 53/53/53 52/52/52
f 42/42/42 43/84/43 54/83/54 53/53/53
f 43/43/43 44/44/44 55/55/55 54/54/54
f 44/44/44 34/34/35 45/45/46 55/55/55
f 45/45/46 46/46/45 56/56/56
f 46/46/45 47/47/47 56/56/56
f 47/47/47 48/48/48 56/56/56
f 48/48/48 49/96/49 56/56/56
f 49/49/49 50/50/50 56/97/56
f 50/50/50 51/51/51 56/97/56
f 51/51/51 52/52/52 56/97/56
f 52/52/52 53/53/53 56/97/56
f 53/53/53 54/83/54 56/97/56
f 54/54/54 55/55/55 56/56/56
f 55/55/55 45/45/46 56/56/56
f 60/60/57 58/57/58 59/59/59 61/61/60
f 62/62/61 60/60/57 61/61/60 63/63/62
f 64/64/63 62/62/61 63/63/62 65/65/64
f 66/66/65 64/64/63 65/65/64 67/67/66
f 68/68/67 66/66/65 67/67/66 69/69/68
f 70/70/69 68/68/67 69/69/68 71/71/70
f 72/72/71 70/70/69 71/71/70 73/73/72
f 74/79/73 72/72/71 73/73/72 75/75/74
f 76/76/75 74/74/73 75/80/74 77/77/76
f 2/2/2 1/1/1 57/58/77 58/57/58
f 3/3/5 2/2/2 58/57/58 60/60/57
f 4/4/7 3/3/5 60/60/57 62/62/61
f 5/5/9 4/4/7 62/62/61 64/64/63
f 6/6/11 5/5/9 64/64/63 66/66/65
f 7/7/13 6/6/11 66/66/65 68/68/67
f 8/8/15 7/7/13 68/68/67 70/70/69
f 9/9/17 8/8/15 70/70/69 72/72/71
f 10/10/19 9/9/17 72/72/71 74/79/73
f 11/11/21 10/82/19 74/74/73 76/76/75
f 1/1/1 11/11/21 76/76/75 57/58/77
f 58/57/58 57/58/77 78/78/78 59/59/59
f 57/58/77 76/76/75 77/77/76 78/78/78
