# This file uses centimeters as units for non-parametric coordinates.

mtllib Servidor.mtl
g default
v -6.675391 0.126983 -0.936018
v -6.701586 0.126983 -0.872778
v -6.764825 0.126983 -0.846584
v -6.764825 2.363058 -0.846584
v -6.701586 2.336863 -0.872778
v -6.675391 2.273624 -0.936018
v -6.764825 2.363058 -2.635443
v -6.701586 2.336863 -2.609248
v -6.675391 2.273624 -2.546009
v -6.675391 0.126983 -2.546009
v -6.764825 0.126983 -2.635443
v -6.701586 0.126983 -2.609248
v -6.764825 1.923823 -0.846584
v -6.701586 1.923823 -0.872778
v -6.675391 1.923822 -0.936018
v -6.675391 1.923822 -2.546009
v -6.701586 1.923823 -2.609248
v -6.764825 1.923823 -2.635443
v -6.764825 1.553431 -0.846584
v -6.701586 1.553431 -0.872778
v -6.675391 1.553430 -0.936018
v -6.675391 1.553430 -2.546009
v -6.701586 1.553431 -2.609248
v -6.764825 1.553431 -2.635443
v -6.764825 0.312470 -0.846584
v -6.701586 0.310297 -0.872778
v -6.675391 0.305051 -0.936018
v -6.675391 0.305051 -2.546009
v -6.701586 0.310297 -2.609249
v -6.764825 0.312470 -2.635443
v -6.764825 0.667131 -0.846584
v -6.764825 0.667131 -2.635443
v -6.701586 0.660803 -2.609248
v -6.675391 0.645527 -2.546009
v -6.675391 0.645527 -0.936018
v -6.701586 0.660803 -0.872778
v -6.764825 1.881763 -0.846584
v -6.764825 1.881763 -2.635443
v -6.701586 1.881763 -2.609248
v -6.675391 1.881763 -2.546009
v -6.675391 1.881763 -0.936018
v -6.701586 1.881763 -0.872778
v -7.477086 0.126983 -0.846584
v -7.542659 0.154144 -0.873745
v -7.569820 0.219717 -0.939318
v -7.477086 0.312470 -0.846584
v -7.542659 0.312470 -0.873745
v -7.569820 0.312470 -0.939318
v -7.477086 2.363058 -0.846584
v -7.542659 2.335896 -0.873745
v -7.569820 2.270324 -0.939318
v -7.569820 2.270324 -2.542709
v -7.542659 2.335896 -2.608282
v -7.477086 2.363058 -2.635443
v -7.477087 1.923823 -2.635443
v -7.542660 1.923823 -2.608282
v -7.569821 1.923823 -2.542709
v -7.477087 0.126983 -2.635443
v -7.542660 0.154144 -2.608282
v -7.569821 0.219717 -2.542709
v -7.477087 1.923823 -0.846584
v -7.542660 1.923823 -0.873745
v -7.569821 1.923823 -0.939318
v -7.569821 1.881763 -2.542709
v -7.542660 1.881763 -2.608282
v -7.477087 1.881763 -2.635443
v -7.477087 1.553431 -0.846584
v -7.542660 1.553431 -0.873745
v -7.569821 1.553431 -0.939318
v -7.477087 1.881763 -0.846584
v -7.542660 1.881763 -0.873745
v -7.569821 1.881763 -0.939318
v -7.477087 1.553431 -2.635443
v -7.542660 1.553431 -2.608282
v -7.569821 1.553431 -2.542709
v -7.569821 0.667131 -2.542709
v -7.542660 0.667131 -2.608282
v -7.477087 0.667131 -2.635443
v -7.477087 0.667131 -0.846584
v -7.542660 0.667131 -0.873745
v -7.569821 0.667131 -0.939318
v -7.477087 0.312470 -2.635443
v -7.542660 0.312470 -2.608282
v -7.569821 0.312470 -2.542709
v -7.120956 0.126983 -0.846584
v -7.120956 0.312470 -0.846584
v -7.120956 0.667131 -0.846584
v -7.120956 1.553431 -0.846584
v -7.120956 1.881763 -0.846584
v -7.120956 1.923823 -0.846584
v -7.120956 2.363058 -0.846584
v -7.120956 2.363058 -2.635443
v -7.120956 1.923823 -2.635443
v -7.120956 1.881763 -2.635443
v -7.120956 1.553431 -2.635443
v -7.120956 0.667131 -2.635443
v -7.120956 0.312470 -2.635443
v -7.120956 0.126983 -2.635443
v -6.512182 0.612888 -2.513371
v -6.521742 0.635967 -2.536450
v -6.521742 0.635967 -0.945577
v -6.512182 0.612888 -0.968656
v -6.544821 0.645527 -2.546009
v -6.544821 0.645527 -0.936018
v -6.512182 0.337690 -0.968656
v -6.512182 0.337690 -2.513371
v -6.675391 0.645527 -2.546009
v -6.675391 0.645527 -0.936018
v -6.675391 0.305051 -0.936018
v -6.544821 0.305051 -0.936018
v -6.675391 0.305051 -2.546009
v -6.544821 0.305051 -2.546009
v -6.521742 0.314611 -0.945578
v -6.521742 0.314611 -2.536450
v -6.512182 1.849124 -2.513371
v -6.521742 1.872203 -2.536450
v -6.521742 1.872203 -0.945578
v -6.512182 1.849124 -0.968656
v -6.544821 1.881763 -2.546009
v -6.544821 1.881763 -0.936018
v -6.512182 1.586069 -0.968656
v -6.512182 1.586069 -2.513371
v -6.675391 1.881763 -2.546009
v -6.675391 1.881763 -0.936018
v -6.675391 1.553430 -0.936018
v -6.544821 1.553430 -0.936018
v -6.675391 1.553430 -2.546009
v -6.544821 1.553430 -2.546009
v -6.521742 1.562990 -0.945578
v -6.521742 1.562990 -2.536450
v -6.544821 1.923822 -0.936018
v -6.521742 1.933382 -0.945578
v -6.521742 2.264064 -0.945578
v -6.544821 2.273624 -0.936018
v -6.512182 1.956461 -0.968656
v -6.512182 2.240985 -0.968656
v -6.512182 1.956461 -2.513371
v -6.512182 2.240985 -2.513371
v -6.675391 2.273624 -0.936018
v -6.675391 1.923822 -0.936018
v -6.675391 1.923822 -2.546009
v -6.544821 1.923822 -2.546009
v -6.675391 2.273624 -2.546009
v -6.544821 2.273624 -2.546009
v -6.521742 1.933382 -2.536450
v -6.521742 2.264064 -2.536450
vt 0.946303 0.085487
vt 0.747308 0.081137
vt 0.747687 0.059154
vt 0.946252 0.063328
vt 0.738987 0.059061
vt 0.738905 0.081718
vt 0.954762 0.086223
vt 0.954511 0.063537
vt 0.748084 0.123298
vt 0.739572 0.125109
vt 0.955217 0.129599
vt 0.946817 0.127624
vt 0.746211 0.235364
vt 0.737801 0.235295
vt 0.953364 0.239838
vt 0.944868 0.239737
vt 0.746866 0.276016
vt 0.738361 0.275936
vt 0.953492 0.280402
vt 0.944985 0.280338
vt 0.746768 0.281208
vt 0.738371 0.281137
vt 0.953410 0.285534
vt 0.944870 0.285531
vt 0.747474 0.324515
vt 0.669326 0.488643
vt 0.959755 0.333537
vt 0.944351 0.329268
vt 0.463269 0.253843
vt 0.667302 0.255034
vt 0.666611 0.291103
vt 0.467898 0.287339
vt 0.463007 0.249679
vt 0.667323 0.250734
vt 0.677325 0.297897
vt 0.678108 0.255261
vt 0.459785 0.296411
vt 0.452143 0.255850
vt 0.461444 0.216823
vt 0.667393 0.217149
vt 0.678158 0.250910
vt 0.451789 0.251517
vt 0.461569 0.126593
vt 0.666914 0.127054
vt 0.678279 0.217145
vt 0.450427 0.217363
vt 0.462910 0.090545
vt 0.665991 0.091316
vt 0.677808 0.126686
vt 0.450637 0.126248
vt 0.463400 0.081230
vt 0.665667 0.082023
vt 0.676711 0.090068
vt 0.452232 0.089213
vt 0.674747 0.072663
vt 0.454465 0.071742
vt 0.730759 0.335806
vt 0.729678 0.743618
vt 0.729366 0.822919
vt 0.530201 0.822137
vt 0.529889 0.901438
vt 0.729055 0.902220
vt 0.491390 0.742682
vt 0.487644 0.742668
vt 0.491078 0.821983
vt 0.458399 0.742553
vt 0.487332 0.821969
vt 0.490767 0.901284
vt 0.379457 0.742243
vt 0.458088 0.821854
vt 0.487021 0.901269
vt 0.347868 0.742119
vt 0.379146 0.821544
vt 0.457776 0.901155
vt 0.331346 0.742054
vt 0.347556 0.821419
vt 0.378834 0.900844
vt 0.331035 0.821355
vt 0.347245 0.900720
vt 0.691623 0.068952
vt 0.768800 0.743772
vt 0.772546 0.743787
vt 0.768489 0.823073
vt 0.801791 0.743902
vt 0.772235 0.823088
vt 0.768177 0.902374
vt 0.880733 0.744212
vt 0.801479 0.823203
vt 0.771923 0.902389
vt 0.912323 0.744336
vt 0.880422 0.823513
vt 0.801168 0.902503
vt 0.962940 0.063263
vt 0.912011 0.823637
vt 0.880110 0.902814
vt 0.928532 0.823702
vt 0.911700 0.902938
vt 0.928221 0.903003
vt 0.739174 0.332272
vt 0.530512 0.742836
vt 0.670689 0.506309
vt 0.433553 0.125734
vt 0.435452 0.087638
vt 0.433294 0.218087
vt 0.695355 0.217147
vt 0.695196 0.251157
vt 0.694874 0.126188
vt 0.434460 0.254675
vt 0.695144 0.255530
vt 0.437659 0.067910
vt 0.434810 0.259829
vt 0.450764 0.311226
vt 0.694328 0.300932
vt 0.677386 0.318467
vt 0.674542 0.301109
vt 0.693637 0.088616
vt 0.330723 0.900655
vt 0.962081 0.280351
vt 0.962371 0.285644
vt 0.729870 0.276225
vt 0.729328 0.235589
vt 0.963688 0.130115
vt 0.961870 0.239598
vt 0.731065 0.126182
vt 0.730434 0.082282
vt 0.963263 0.086225
vt 0.730403 0.059346
vt 0.969721 0.343847
vt 0.729896 0.281428
vt 0.928844 0.744401
vt 0.673713 0.473752
vt 0.945790 0.085305
vt 0.946102 0.063453
vt 0.559720 0.652955
vt 0.553241 0.647298
vt 0.918024 0.642205
vt 0.912973 0.648472
vt 0.545797 0.638465
vt 0.919488 0.631430
vt 0.904148 0.699306
vt 0.563135 0.701613
vt 0.632287 0.605539
vt 0.374635 0.607378
vt 0.374337 0.565586
vt 0.631989 0.563747
vt 0.977120 0.603078
vt 0.933530 0.603389
vt 0.933231 0.561598
vt 0.976821 0.561287
vt 0.675877 0.605228
vt 0.675579 0.563437
vt 0.921042 0.646769
vt 0.909534 0.705354
vt 0.932204 0.649044
vt 0.915217 0.715298
vt 0.557418 0.707599
vt 0.550467 0.716813
vt 0.381966 0.038266
vt 0.387653 0.033128
vt 0.377404 0.394235
vt 0.371879 0.388694
vt 0.392807 0.030479
vt 0.383023 0.396640
vt 0.312609 0.386788
vt 0.323056 0.036456
vt 0.238975 0.282686
vt 0.241578 0.023860
vt 0.283560 0.024282
vt 0.280956 0.283108
vt 0.235521 0.625965
vt 0.235946 0.583738
vt 0.277928 0.584161
vt 0.277503 0.626388
vt 0.238550 0.324913
vt 0.280531 0.325335
vt 0.376724 0.393884
vt 0.306883 0.391916
vt 0.378557 0.399689
vt 0.301695 0.394555
vt 0.317680 0.030980
vt 0.312688 0.028019
vt 0.206622 0.035734
vt 0.197245 0.042224
vt 0.135558 0.039760
vt 0.126953 0.032001
vt 0.191382 0.048042
vt 0.141261 0.046046
vt 0.193727 0.387071
vt 0.141672 0.396927
vt 0.050197 0.067069
vt 0.050490 0.022653
vt 0.091938 0.022926
vt 0.091645 0.067343
vt 0.046533 0.622565
vt 0.048218 0.367026
vt 0.089667 0.367299
vt 0.087981 0.622838
vt 0.048511 0.322609
vt 0.089960 0.322882
vt 0.199799 0.392325
vt 0.209498 0.398134
vt 0.140136 0.404983
vt 0.142555 0.415622
vt 0.135501 0.401882
vt 0.124685 0.403516
vn 0.060899 -0.000000 0.998144
vn 0.382684 0.000000 0.923879
vn 0.382684 0.000000 0.923879
vn 0.048306 0.000000 0.998833
vn 0.923880 0.000000 0.382683
vn 0.993180 0.000000 0.116589
vn 0.923880 0.000000 0.382683
vn 0.923880 0.000000 0.382683
vn 0.048971 0.998800 0.000000
vn 0.382686 0.923878 0.000000
vn 0.382686 0.923878 0.000000
vn 0.048971 0.998800 0.000000
vn 0.923879 0.382684 0.000000
vn 0.923879 0.382684 0.000000
vn 0.923879 0.382684 0.000000
vn 0.923879 0.382684 0.000000
vn 0.048307 0.000000 -0.998833
vn 0.382687 0.000000 -0.923878
vn 0.382687 0.000000 -0.923878
vn 0.060900 0.000000 -0.998144
vn 0.923878 0.000000 -0.382686
vn 0.923878 0.000000 -0.382686
vn 0.993180 0.000000 -0.116589
vn 0.923879 0.000000 -0.382686
vn 0.062478 0.000000 0.998046
vn 0.382685 0.000000 0.923879
vn 0.382684 -0.000000 0.923879
vn 0.062340 0.000000 0.998055
vn 0.923879 0.000000 0.382684
vn 0.999782 0.000000 0.020901
vn 0.994381 0.000000 0.105858
vn 0.923879 0.000000 0.382685
vn 0.923880 0.000000 -0.382684
vn 0.994381 0.000000 -0.105858
vn 0.999782 0.000000 -0.020901
vn 0.923880 0.000000 -0.382683
vn 0.062341 0.000000 -0.998055
vn 0.382685 0.000000 -0.923879
vn 0.382687 0.000000 -0.923878
vn 0.062479 0.000000 -0.998046
vn 0.062363 0.000000 0.998054
vn 0.382683 0.000000 0.923880
vn 0.382684 -0.000000 0.923879
vn 0.063720 -0.000000 0.997968
vn 0.923880 0.000000 0.382683
vn 0.999099 0.000000 0.042449
vn 0.999802 0.000000 0.019924
vn 0.923879 0.000000 0.382684
vn 0.923880 0.000000 -0.382683
vn 0.999802 0.000000 -0.019924
vn 0.999099 0.000000 -0.042449
vn 0.923880 0.000000 -0.382682
vn 0.063721 -0.000000 -0.997968
vn 0.382685 -0.000000 -0.923879
vn 0.382679 -0.000000 -0.923882
vn 0.062363 -0.000000 -0.998054
vn 0.062031 0.000000 0.998074
vn 0.382683 0.000000 0.923880
vn 0.923880 -0.000000 0.382683
vn 0.999874 0.000000 0.015875
vn 0.999874 0.000000 -0.015875
vn 0.923880 -0.000000 -0.382682
vn 0.382678 -0.000000 -0.923882
vn 0.062031 0.000001 -0.998074
vn -0.995888 0.088345 0.020077
vn -0.923880 0.382682 0.000000
vn -0.923880 0.382682 0.000000
vn -0.995888 0.088345 -0.020077
vn -0.382686 0.923878 0.000000
vn -0.050529 0.998723 0.000000
vn -0.050529 0.998723 0.000000
vn -0.382686 0.923878 0.000000
vn -0.999845 0.000003 -0.017586
vn -0.923881 0.000002 -0.382681
vn -0.923880 0.000000 -0.382682
vn -0.999868 0.000000 -0.016272
vn -0.382682 0.000001 -0.923880
vn -0.062742 0.000000 -0.998030
vn -0.064275 0.000000 -0.997932
vn -0.382683 0.000000 -0.923880
vn -0.999868 0.000000 -0.016272
vn -0.923880 0.000000 -0.382682
vn -0.923880 0.000000 -0.382682
vn -0.999868 -0.000000 -0.016272
vn -0.382683 0.000000 -0.923880
vn -0.064275 0.000000 -0.997932
vn -0.064275 0.000000 -0.997932
vn -0.382683 0.000000 -0.923880
vn -0.999845 0.000003 0.017586
vn -0.062743 0.000000 0.998030
vn -0.000000 -0.000000 1.000000
vn -0.000000 0.000000 1.000000
vn -0.049820 0.000000 0.998758
vn 0.000000 1.000000 0.000000
vn 0.000000 1.000000 0.000000
vn -0.049820 0.000000 -0.998758
vn 0.000000 0.000000 -1.000000
vn 0.000000 0.000000 -1.000000
vn -0.064275 0.000000 0.997932
vn -0.000000 0.000000 1.000000
vn -0.000000 -0.000000 1.000000
vn -0.064275 0.000000 0.997932
vn 0.000000 0.000000 -1.000000
vn 0.000000 0.000000 -1.000000
vn -0.999868 0.000000 0.016272
vn -0.999868 0.000000 0.016272
vn -0.062910 -0.000000 0.998019
vn 0.000000 0.000000 1.000000
vn 0.000000 -0.000000 1.000000
vn -0.064275 -0.000000 0.997932
vn 0.000000 -0.000000 -1.000000
vn 0.000000 -0.000000 -1.000000
vn -0.062910 0.000000 -0.998019
vn -0.999848 -0.000001 -0.017414
vn -0.999848 -0.000001 0.017414
vn -0.999868 -0.000000 0.016272
vn -0.047902 0.000000 0.998852
vn 0.000000 0.000000 1.000000
vn 0.000001 0.000000 -1.000000
vn -0.047902 0.000000 -0.998852
vn -0.979037 -0.203107 -0.015277
vn -0.979037 -0.203107 0.015278
vn -0.923880 -0.382683 0.000001
vn -0.923880 -0.382683 0.000001
vn -0.923880 0.000000 0.382683
vn -0.923880 -0.000002 0.382683
vn -0.382682 0.000000 0.923880
vn -0.382682 -0.000001 0.923880
vn -0.382683 0.000001 0.923880
vn -0.382683 0.000001 0.923880
vn -0.923880 0.000002 0.382682
vn -0.923880 0.000002 0.382682
vn -0.923881 0.000002 -0.382681
vn -0.382682 0.000001 -0.923880
vn -0.382684 0.000000 -0.923879
vn -0.382683 0.000000 -0.923880
vn -0.923880 0.000000 -0.382683
vn -0.923880 0.000000 -0.382682
vn -0.382683 0.000000 0.923880
vn -0.923880 0.000000 0.382683
vn -0.382683 0.000000 0.923880
vn -0.382683 -0.000000 0.923880
vn -0.923880 0.000000 0.382683
vn -0.923880 -0.000001 0.382683
vn 0.998941 0.045190 -0.008597
vn 0.923879 0.382684 0.000000
vn 0.923879 0.382684 0.000000
vn 0.998941 0.045190 0.008597
vn 0.382674 0.923883 0.000000
vn 0.049150 0.998791 0.000000
vn 0.049150 0.998791 0.000000
vn 0.382674 0.923883 0.000000
vn 0.998941 -0.045189 0.008598
vn 0.998941 -0.045189 -0.008597
vn 0.000000 1.000000 0.000000
vn 0.000000 1.000000 0.000000
vn 0.000000 0.000000 1.000000
vn 0.000000 0.000000 1.000000
vn 0.048186 -0.000000 0.998838
vn 0.048186 -0.000000 0.998838
vn 0.000000 -1.000000 0.000000
vn 0.000000 -1.000000 0.000000
vn 0.049151 -0.998791 0.000000
vn 0.049151 -0.998791 0.000000
vn 0.000000 0.000000 -1.000000
vn 0.000000 0.000000 -1.000000
vn 0.048186 0.000000 -0.998838
vn 0.048186 0.000000 -0.998838
vn 0.923879 0.000000 0.382685
vn 0.923879 0.000000 0.382685
vn 0.382682 -0.000000 0.923880
vn 0.382682 -0.000000 0.923880
vn 0.923881 -0.382680 0.000000
vn 0.923881 -0.382680 0.000000
vn 0.382682 -0.923880 0.000000
vn 0.382682 -0.923880 0.000000
vn 0.382679 0.000000 -0.923882
vn 0.382679 0.000000 -0.923882
vn 0.923880 0.000000 -0.382682
vn 0.923880 0.000000 -0.382682
vn 0.998857 0.047031 -0.008584
vn 0.923879 0.382685 0.000000
vn 0.923879 0.382685 0.000000
vn 0.998857 0.047031 0.008584
vn 0.382674 0.923884 0.000000
vn 0.049150 0.998791 0.000000
vn 0.049150 0.998791 0.000000
vn 0.382674 0.923883 0.000000
vn 0.998857 -0.047031 0.008584
vn 0.998857 -0.047031 -0.008584
vn 0.000000 1.000000 0.000000
vn 0.000000 1.000000 0.000000
vn 0.000000 0.000000 1.000000
vn 0.000000 0.000000 1.000000
vn 0.048141 0.000000 0.998841
vn 0.048142 0.000000 0.998841
vn 0.000000 -1.000000 0.000000
vn 0.000000 -1.000000 0.000000
vn 0.049153 -0.998791 0.000000
vn 0.049153 -0.998791 0.000000
vn 0.000000 0.000000 -1.000000
vn 0.000000 0.000000 -1.000000
vn 0.048142 0.000000 -0.998841
vn 0.048141 0.000000 -0.998841
vn 0.923878 0.000000 0.382687
vn 0.923878 0.000000 0.382687
vn 0.382686 0.000000 0.923879
vn 0.382686 0.000000 0.923879
vn 0.923879 -0.382685 0.000000
vn 0.923879 -0.382685 0.000000
vn 0.382694 -0.923875 0.000000
vn 0.382694 -0.923875 0.000000
vn 0.382689 0.000000 -0.923877
vn 0.382689 0.000000 -0.923877
vn 0.923879 0.000000 -0.382685
vn 0.923879 0.000000 -0.382685
vn 0.048220 0.000000 0.998837
vn 0.382687 0.000000 0.923878
vn 0.382687 0.000000 0.923878
vn 0.048220 0.000000 0.998837
vn 0.923878 0.000000 0.382687
vn 0.999000 -0.043870 0.008607
vn 0.999000 0.043870 0.008607
vn 0.923878 0.000000 0.382687
vn 0.999000 -0.043870 -0.008607
vn 0.999000 0.043870 -0.008607
vn 0.000000 0.000000 1.000000
vn 0.000000 0.000000 1.000000
vn 0.000000 -1.000000 0.000000
vn 0.000000 -1.000000 0.000000
vn 0.049151 -0.998791 0.000000
vn 0.049150 -0.998791 0.000000
vn 0.000000 0.000000 -1.000000
vn 0.000000 0.000000 -1.000000
vn 0.048219 0.000000 -0.998837
vn 0.048219 0.000000 -0.998837
vn 0.000000 1.000000 0.000000
vn 0.000000 1.000000 0.000000
vn 0.049151 0.998791 0.000000
vn 0.049151 0.998791 0.000000
vn 0.923880 -0.382682 0.000000
vn 0.923880 -0.382682 0.000000
vn 0.382678 -0.923882 0.000000
vn 0.382678 -0.923882 0.000000
vn 0.923879 0.000000 -0.382684
vn 0.923879 0.000000 -0.382684
vn 0.382681 0.000000 -0.923881
vn 0.382681 0.000000 -0.923881
vn 0.382682 0.923880 0.000000
vn 0.382682 0.923880 0.000000
vn 0.923880 0.382683 0.000000
vn 0.923880 0.382683 0.000000
s 1
g Servidor
usemtl initialShadingGroup
f 13/129/1 14/22/2 5/99/3 4/57/4
s 2
f 14/22/5 15/21/6 6/25/7 5/99/8
s 3
f 4/101/9 5/26/10 8/27/11 7/128/12
s off
f 5/26/13 6/131/14 9/28/15 8/27/16
s 4
f 7/128/17 8/27/18 17/23/19 18/119/20
s 2
f 8/27/21 9/28/22 16/24/23 17/23/24
s 1
f 19/121/25 20/14/26 42/18/27 37/120/28
s 2
f 20/14/29 21/13/30 41/17/31 42/18/32
f 39/19/33 40/20/34 22/16/35 23/15/36
s 4
f 38/118/37 39/19/38 23/15/39 24/123/40
s 1
f 25/125/41 26/6/42 36/10/43 31/124/44
s 2
f 26/6/45 27/2/46 35/9/47 36/10/48
f 33/11/49 34/12/50 28/1/51 29/7/52
s 4
f 32/122/53 33/11/54 29/7/55 30/126/56
s 1
f 3/127/57 2/5/58 26/6/42 25/125/41
s 2
f 2/5/59 1/3/60 27/2/46 26/6/45
f 28/132/51 27/2/46 1/3/60 10/4/61
f 29/7/52 28/1/51 10/133/61 12/8/62
s 4
f 30/126/56 29/7/55 12/8/63 11/93/64
f 24/123/40 23/15/39 33/11/54 32/122/53
s 2
f 23/15/36 22/16/35 34/12/50 33/11/49
f 22/16/35 21/13/30 35/9/47 34/12/50
f 36/10/48 35/9/47 21/13/30 20/14/29
s 1
f 31/124/44 36/10/43 20/14/26 19/121/25
s 4
f 18/119/20 17/23/19 39/19/38 38/118/37
s 2
f 17/23/24 16/24/23 40/20/34 39/19/33
f 16/24/23 15/21/6 41/17/31 40/20/34
f 42/18/32 41/17/31 15/21/6 14/22/5
s 1
f 37/120/28 42/18/27 14/22/2 13/129/1
s 10
f 51/31/65 50/115/66 53/37/67 52/32/68
s 3
f 50/115/69 49/114/70 54/112/71 53/37/72
s 10
f 57/29/73 56/38/74 65/42/75 64/33/76
s 4
f 56/38/77 55/111/78 66/108/79 65/42/80
s 10
f 75/39/81 74/46/82 77/50/83 76/43/84
s 4
f 74/46/85 73/104/86 78/102/87 77/50/88
s 10
f 57/29/73 63/30/89 51/31/65 52/32/68
s 1
f 61/68/90 90/65/91 91/60/92 49/61/93
s 3
f 49/61/70 91/60/94 92/59/95 54/62/71
s 4
f 54/62/96 92/59/97 93/83/98 55/86/78
s 1
f 67/74/99 88/70/100 89/67/101 70/71/102
s 4
f 66/89/79 94/85/103 95/88/104 73/92/86
s 10
f 75/39/81 69/40/105 72/34/106 64/33/76
s 1
f 46/79/107 86/76/108 87/73/109 79/77/110
s 4
f 78/95/87 96/91/111 97/94/112 82/97/113
s 10
f 84/47/114 48/48/115 81/44/116 76/43/84
s 1
f 43/117/117 85/78/118 86/76/108 46/79/107
s 4
f 82/97/113 97/94/112 98/96/119 58/98/120
s 10
f 60/51/121 45/52/122 48/48/115 84/47/114
s 1
f 79/77/110 87/73/109 88/70/100 67/74/99
s 10
f 76/43/84 81/44/116 69/40/105 75/39/81
s 4
f 73/92/86 95/88/104 96/91/111 78/95/87
s 1
f 70/71/102 89/67/101 90/65/91 61/68/90
s 10
f 64/33/76 72/34/106 63/30/89 57/29/73
s 4
f 55/86/78 93/83/98 94/85/103 66/89/79
s 10
f 44/55/123 45/52/122 60/51/121 59/56/124
f 45/52/122 44/55/125 47/53/126 48/48/115
s 1
f 44/55/127 43/80/117 46/116/107 47/53/128
f 49/113/93 50/35/129 62/36/130 61/109/90
s 10
f 50/35/131 51/31/65 63/30/89 62/36/132
f 52/32/68 53/37/133 56/38/74 57/29/73
s 4
f 53/37/134 54/112/96 55/111/78 56/38/77
f 58/110/120 59/56/135 83/54/136 82/103/113
s 10
f 59/56/137 60/51/121 84/47/114 83/54/138
s 1
f 61/109/90 62/36/130 71/41/139 70/106/102
s 10
f 62/36/132 63/30/89 72/34/106 71/41/140
s 1
f 67/105/99 68/45/141 80/49/142 79/107/110
s 10
f 68/45/143 69/40/105 81/44/116 80/49/144
f 69/40/105 68/45/143 71/41/140 72/34/106
s 1
f 68/45/141 67/105/99 70/106/102 71/41/139
s 10
f 64/33/76 65/42/75 74/46/82 75/39/81
s 4
f 65/42/80 66/108/79 73/104/86 74/46/85
s 10
f 48/48/115 47/53/126 80/49/144 81/44/116
s 1
f 47/53/128 46/116/107 79/107/110 80/49/142
s 10
f 76/43/84 77/50/83 83/54/138 84/47/114
s 4
f 77/50/88 78/102/87 82/103/113 83/54/136
s 1
f 86/76/108 85/78/118 3/75/57 25/72/41
f 87/73/109 86/76/108 25/72/41 31/69/44
f 88/70/100 87/73/109 31/69/44 19/66/25
f 89/67/101 88/70/100 19/66/25 37/64/28
f 90/65/91 89/67/101 37/64/28 13/63/1
f 91/60/92 90/65/91 13/63/1 4/100/4
s 3
f 92/59/95 91/60/94 4/100/9 7/58/12
s 4
f 93/83/98 92/59/97 7/58/17 18/81/20
f 94/85/103 93/83/98 18/81/20 38/82/37
f 95/88/104 94/85/103 38/82/37 24/84/40
f 96/91/111 95/88/104 24/84/40 32/87/53
f 97/94/112 96/91/111 32/87/53 30/90/56
f 98/96/119 97/94/112 30/90/56 11/130/64
s 18
f 99/134/145 100/135/146 101/136/147 102/137/148
s 19
f 100/135/149 103/138/150 104/139/151 101/136/152
s 18
f 99/134/145 102/137/148 105/140/153 106/141/154
s 19
f 107/142/155 108/143/156 104/144/151 103/145/150
s 20
f 108/146/157 109/147/158 110/148/159 104/149/160
s 21
f 109/147/161 111/150/162 112/151/163 110/148/164
s 22
f 111/150/165 107/142/166 103/145/167 112/151/168
s 18
f 102/137/148 101/152/169 113/153/170 105/140/153
s 20
f 101/152/171 104/154/160 110/155/159 113/153/172
s 18
f 105/140/153 113/153/173 114/156/174 106/141/154
s 21
f 113/153/175 110/155/164 112/157/163 114/156/176
s 22
f 103/138/167 100/135/177 114/156/178 112/157/168
s 18
f 100/135/179 99/134/145 106/141/154 114/156/180
s 23
f 115/158/181 116/159/182 117/160/183 118/161/184
s 24
f 116/159/185 119/162/186 120/163/187 117/160/188
s 23
f 115/158/181 118/161/184 121/164/189 122/165/190
s 24
f 123/166/191 124/167/192 120/168/187 119/169/186
s 25
f 124/170/193 125/171/194 126/172/195 120/173/196
s 26
f 125/171/197 127/174/198 128/175/199 126/172/200
s 27
f 127/174/201 123/166/202 119/169/203 128/175/204
s 23
f 118/161/184 117/176/205 129/177/206 121/164/189
s 25
f 117/176/207 120/178/196 126/179/195 129/177/208
s 23
f 121/164/189 129/177/209 130/180/210 122/165/190
s 26
f 129/177/211 126/179/200 128/181/199 130/180/212
s 27
f 119/162/203 116/159/213 130/180/214 128/181/204
s 23
f 116/159/215 115/158/181 122/165/190 130/180/216
s 28
f 131/182/217 132/183/218 133/184/219 134/185/220
s 29
f 132/183/221 135/186/222 136/187/223 133/184/224
f 136/187/223 135/186/222 137/188/225 138/189/226
s 28
f 139/190/227 140/191/228 131/192/217 134/193/220
s 30
f 140/194/229 141/195/230 142/196/231 131/197/232
s 31
f 141/195/233 143/198/234 144/199/235 142/196/236
s 32
f 143/198/237 139/190/238 134/193/239 144/199/240
s 29
f 135/186/222 132/183/241 145/200/242 137/188/225
s 30
f 132/183/243 131/182/232 142/201/231 145/200/244
s 29
f 137/188/225 145/200/245 146/202/246 138/189/226
s 31
f 145/200/247 142/201/236 144/203/235 146/202/248
s 32
f 134/185/239 133/184/249 146/204/250 144/205/240
s 29
f 133/184/251 136/187/223 138/189/226 146/204/252
